<svg xmlns="http://www.w3.org/2000/svg" viewBox="0 0 923.33 862.26"><g id="Capa_2_copia" data-name="Capa 2 copia"><path d="M289.86,208.53" transform="translate(-64.61 -56.67)" fill="none" stroke="#1d1d1b" stroke-miterlimit="10" stroke-width="15"/><path d="M175.72,199.48c63.39-52.79,204.61-170.4,347.76-133.92C638.72,94.93,661.31,200.22,774,199.48c70.08-.46,86-41.31,125.28-28.08,95.35,32.14,123.29,314.44,25.92,533.52-21.42,48.2-90.44,203.49-198.72,211.68-67.26,5.09-83.41-51.61-175-84.24-179.57-64-321.1,81.5-382.32,21.6-68.6-67.13,91.86-266.73-2.16-391-38.16-50.42-90.69-52-99.36-101.52C56.7,298.59,130.3,237.31,175.72,199.48Z" transform="translate(-64.61 -56.67)" fill="#f6b19c" stroke="#1d1d1b" stroke-miterlimit="10" stroke-width="4"/></g><g id="Capa_2" data-name="Capa 2"><path d="M787.22,683.55a19.13,19.13,0,0,1-1.84,1.32c-.6.39-1.21.76-1.82,1.13s-1.2.73-1.87,1.09l-1.87,1c-2.5,1.36-5,2.66-7.57,3.92-5.09,2.54-10.29,4.85-15.54,7s-10.56,4.25-15.92,6.2S730,709,724.59,710.7A490.48,490.48,0,0,1,658,726.19l-8.45,1.32-8.48,1.2c-5.65.73-11.32,1.42-17,2q-17,1.8-34.12,2.64c-11.39.62-22.8.87-34.2.9-5.73,0-11.37,0-17-.08l-17-.24c-45.22-.85-90.51-2.7-135.65-7.8a658.76,658.76,0,0,1-67.42-10.75c-5.58-1.24-11.14-2.57-16.67-4.08s-11-3.14-16.47-5a160.4,160.4,0,0,1-16.06-6.42c-2.62-1.22-5.19-2.58-7.7-4a59.48,59.48,0,0,1-7.21-4.91l1.59-2.4a83.62,83.62,0,0,0,15.4,5.92c5.3,1.55,10.7,2.82,16.15,3.9,10.89,2.19,21.93,3.76,33,5.1,22.17,2.64,44.5,4.33,66.87,5.78s44.79,2.56,67.24,3.55l33.68,1.44,33.72,1.21c11.21.39,22.54.72,33.68,1,5.58.17,11.15.19,16.73.24l8.36,0c2.79,0,5.58,0,8.37-.07,22.31-.34,44.6-1.56,66.8-3.84a613.09,613.09,0,0,0,66.19-10.34c10.93-2.36,21.81-5,32.57-8.19q8.07-2.37,16-5.11c5.24-1.9,10.79-3.61,15.23-6.6Z" transform="translate(-64.61 -56.67)" fill="#1d1d1b"/><path d="M786.73,409.5c1,11,1.64,22,2.24,33l.75,16.5q.31,8.25.56,16.5c.64,22,.82,44,.74,66s-.36,44-1.07,66-1.55,44-3.22,66c-1.67-22-2.56-44-3.22-66s-1-44-1.07-66,.1-44,.74-66q.24-8.25.56-16.5l.75-16.5C785.09,431.51,785.7,420.5,786.73,409.5Z" transform="translate(-64.61 -56.67)" fill="#1d1d1b"/><path d="M251.05,409.5c1,11,1.64,22,2.24,33L254,459q.32,8.25.56,16.5c.64,22,.82,44,.74,66s-.36,44-1.07,66-1.55,44-3.22,66c-1.67-22-2.56-44-3.22-66s-1-44-1.07-66,.1-44,.74-66q.24-8.25.56-16.5l.75-16.5C249.41,431.51,250,420.5,251.05,409.5Z" transform="translate(-64.61 -56.67)" fill="#1d1d1b"/><path d="M249.61,406.79a11.27,11.27,0,0,1,1-4.93A11.1,11.1,0,0,1,252,399.7l1.5-1.77a47.7,47.7,0,0,1,6.77-6.12l1.79-1.39,1.89-1.22,3.8-2.43c2.6-1.47,5.25-2.85,7.88-4.28l8.14-3.68c1.35-.65,2.75-1.15,4.13-1.67l4.17-1.58,4.17-1.58c1.39-.51,2.82-.91,4.23-1.37l8.48-2.69c22.76-6.67,46.11-10.73,69.49-13.89,46.8-6.24,94-8.32,141.05-8.67,5.88-.14,11.77-.08,17.66-.05l8.83,0,8.83.14c5.89.11,11.77.18,17.66.39s11.77.3,17.66.6,11.77.52,17.65.93,11.76.71,17.63,1.21l8.82.69,8.8.83c5.87.52,11.72,1.28,17.58,1.94,11.7,1.52,23.39,3.14,35,5.35s23.12,4.83,34.47,8.14a179.3,179.3,0,0,1,33,13,77.7,77.7,0,0,1,14.72,9.92,38.33,38.33,0,0,1,5.94,6.59,21.88,21.88,0,0,1,2.18,3.86,9.6,9.6,0,0,1,.87,4.31,9.47,9.47,0,0,0-1.09-4.21,21.83,21.83,0,0,0-2.36-3.67,37.73,37.73,0,0,0-6.18-6.13,75.44,75.44,0,0,0-14.87-9.11,177,177,0,0,0-33-11.4c-22.66-5.77-45.91-9-69.19-11.36q-35-3.33-70.13-4.25c-23.43-.74-46.89-.85-70.33-.52l-17.59.3-8.79.15c-2.93.05-5.87.07-8.79.21L466.8,356l-8.78.35c-2.93.11-5.86.19-8.78.4-23.38,1.37-46.77,3-70,5.9S332.88,369,310.36,375L302,377.4c-1.4.41-2.82.76-4.19,1.22L293.65,380l-4.12,1.42c-1.38.47-2.77.92-4.09,1.51l-8,3.33c-2.58,1.3-5.18,2.55-7.74,3.88L266,392.39l-1.85,1.11-1.73,1.25a43.73,43.73,0,0,0-6.53,5.39l-1.42,1.53a7.49,7.49,0,0,0-1.05,1.54,8.37,8.37,0,0,0-.92,3.58Z" transform="translate(-64.61 -56.67)" fill="#1d1d1b"/><path d="M780.79,417.82c-8.78,7.05-19.07,12-29.45,16.33a282.15,282.15,0,0,1-32.08,10.62c-10.88,2.92-21.89,5.36-33,7.49s-22.19,3.85-33.34,5.38-22.34,2.78-33.55,3.79c-5.6.54-11.21,1-16.81,1.43s-11.22.86-16.84,1.16q-33.67,1.92-67.4,2.22c-45,.39-90.11-1.63-134.67-8.42a481.59,481.59,0,0,1-66-14.46c-5.38-1.67-10.75-3.37-16.05-5.29-2.66-.91-5.28-1.95-7.92-2.93s-5.23-2.08-7.81-3.21A167.17,167.17,0,0,1,256.26,416a143.19,143.19,0,0,0,14.89,7.77c5.08,2.33,10.27,4.43,15.51,6.37a328.68,328.68,0,0,0,32,9.91c10.81,2.8,21.73,5.17,32.71,7.18s22,3.75,33.1,5.13q33.24,4.17,66.77,5.65c5.58.3,11.17.41,16.75.65s11.17.3,16.76.4c11.18.15,22.35.19,33.55,0,22.38-.2,44.76-.75,67.1-1.91,5.59-.22,11.16-.6,16.75-.89s11.16-.72,16.73-1.17,11.15-.89,16.71-1.44,11.12-1.08,16.68-1.65q16.66-1.85,33.22-4.45c11-1.72,22-3.76,32.9-6.26l4.09-.93,4.06-1c2.72-.65,5.4-1.42,8.1-2.13,5.37-1.52,10.71-3.15,16-5s10.48-3.88,15.55-6.23A91.6,91.6,0,0,0,780.79,417.82Z" transform="translate(-64.61 -56.67)" fill="#1d1d1b"/><path d="M289.86,208.53" transform="translate(-64.61 -56.67)" fill="none" stroke="#1d1d1b" stroke-miterlimit="10" stroke-width="15"/><path d="M535.06,222.83c-4-5.37-8.78-10-13.1-15.31a8.09,8.09,0,0,0,2.42,8c3.71,3.82,6.64,8.33,10.45,12.08a2,2,0,0,1,.64,1.08,40.38,40.38,0,0,1-.24,9.62c-4.27-5.12-8.82-9.92-13.24-14.95,0,2.15-.79,4.27,1.1,6.24,4.09,4.26,7.48,9.14,11.56,13.43a2.68,2.68,0,0,1,.94,1.8,54.12,54.12,0,0,1-.39,9.13c-4.29-5.17-8.79-10.08-13.17-15.23-.67,4-.36,4.76,2.06,7.52,3.71,4.25,7.32,8.6,11,12.89a2.41,2.41,0,0,1,.56,1.62c0,2.45,0,4.91,0,7.36,0,.46.16,1.09-.39,1.28s-.67-.44-.92-.76c-3.69-4.68-7.78-9-11.63-13.57-.2-.23-.34-.56-.71-.57-.68,3.14.27,5.62,2.55,7.94,2.67,2.73,5,5.82,7.46,8.74.31.37.67.69,1,1,1.67,1.77,3,3.58,2.71,6.32a51.38,51.38,0,0,0,0,6.33l-.51.21L522.3,270.18c-.4,2.31-.88,4.35,1,6.37,3.88,4.16,7.39,8.67,11.18,12.92,1,1.12.87,2.29,1,3.53a28.39,28.39,0,0,1-.25,7.62c-4.31-5.15-8.84-10.06-13.48-15.49,0,1.79,0,3.14,0,4.5a2,2,0,0,0,.72,1.37q6,7.13,12.12,14.23a4.16,4.16,0,0,1,1,2.93c-.07,2.34-.09,4.68-.13,7,0,.35.19.81-.32.94-.35.09-.56-.24-.74-.5-2.67-3.74-6-6.94-8.85-10.5-1.1-1.36-2.29-2.66-3.67-4.24,0,2.66-.49,4.86,1.57,7,3,3,5.49,6.51,8.23,9.78A16.47,16.47,0,0,0,533.9,320c1.52,1.21,1.74,2.83,1.73,4.58,0,1.92,0,3.84,0,5.76,0,.45.19,1.07-.41,1.25s-.72-.38-1-.71c-3.79-4.88-8.12-9.3-12-14.08-.06-.07-.18-.09-.35-.18-.06.81-.14,1.57-.18,2.35a4.85,4.85,0,0,0,1.27,3.75c4.07,4.5,7.64,9.43,11.81,13.86a2.93,2.93,0,0,1,.87,2.14c0,2.61,0,5.22,0,7.83,0,.27,0,.58-.26.69s-.55-.22-.74-.45c-2.54-2.94-5.06-5.9-7.6-8.84-1.63-1.89-3.28-3.77-5.14-5.92.14,2.65-.33,4.87,1.68,7,3.93,4.19,7.46,8.75,11.2,13.12a3.71,3.71,0,0,1,.92,2.63c0,2.39,0,4.79,0,7.18,0,.32.07.72-.27.85s-.65-.29-.85-.56c-3.35-4.34-7.24-8.23-10.71-12.49-.53-.65-1.11-1.27-1.72-1.95-.72,3-.31,4.58,1.55,6.8,3.59,4.29,7.1,8.65,10.9,12.76a4.26,4.26,0,0,1,1.15,3.2c-.06,2.23,0,4.47,0,6.71,0,.37.11.83-.27,1s-.76-.27-1-.58c-3.72-4.88-8.08-9.21-12-13.93-.13-.16-.27-.3-.35-.39-1.48,4,1.15,6.4,3.42,9,3.19,3.64,6.3,7.37,9.45,11a2.83,2.83,0,0,1,.73,1.89v8.58l-.43.19L522,378.83c-.14.25-.22.33-.23.42-.91,4.1,1.77,6.55,4.14,9.21C529,392,532,395.58,535,399.19c1.09,1.31.52,2.93.15,4.28-.31,1.18-1.67,1.52-2.85,1.77a1.33,1.33,0,0,1-1.36-.62q-4-4.58-8-9.12c-.23-.26-.43-.71-.87-.52s-.18.56-.25.85c-.88,3.28,1.68,5,3.27,7.13.57.76,1.27,1.43,1.88,2.17.25.31.78.58.6,1.05s-.81.48-1.26.49a83.79,83.79,0,0,1-10.39-.08,24.25,24.25,0,0,1-6.69-1.45c-2.26-.88-2.68-1.52-2.68-3.95q0-42.88,0-85.76,0-51.82,0-103.67V200.4c0-2.53.74-3.52,3.24-4.23a29.77,29.77,0,0,1,8.18-1.32c2.25,0,2.47-.26,2.06-2.41-.33-1.67-.88-3.29-1.26-4.95-.25-1.06-1.11-1.19-1.91-1.45-5.77-1.9-10-5.41-11.78-11.39-1.58-5.26-.29-10.1,2.36-14.7,1.86-3.23,4-6.29,5.63-9.66a19.43,19.43,0,0,0,2-6.88c.35-4.09.73-8.19-.35-12.23-.32-1.23.18-1.3,1.12-1a21,21,0,0,1,8.07,4.74c5.91,5.47,9.15,12.47,11.42,20a52.82,52.82,0,0,1,2.48,12.17c.5,8.86-3.37,16.11-12.49,18.47-1.57.41-2.18.89-1.67,2.57a8.25,8.25,0,0,1-.19,5.35c-.41,1.12,0,1.39,1.08,1.4a25.73,25.73,0,0,1,8,1.34c1.78.62,3,1.49,3,3.72s0,4.16.1,6.23c0,.3.08.7-.31.82s-.53-.27-.76-.47a28.78,28.78,0,0,1-3-3.54,3.85,3.85,0,0,0-4.27-.88c-.64.39-.34.79,0,1.18,1.56,1.89,2.89,4.06,4.74,5.6,3.13,2.6,4.09,5.75,3.64,9.61a35.19,35.19,0,0,0,0,4.11Z" transform="translate(-64.61 -56.67)"/><path d="M265.53,438.89c-1.1.59-1.44,1.06-1.48,1.48a9.58,9.58,0,0,0,.23,1.21l.52,2.42c.35,1.6.67,3.21,1.05,4.81l1.33,4.74.67,2.37a22,22,0,0,0,.73,2.35,137.4,137.4,0,0,0,7.51,18.12l2.22,4.35,2.45,4.23,1.22,2.1c.42.7.88,1.37,1.32,2.05l2.66,4.07a138.78,138.78,0,0,0,12.11,15c2.22,2.28,4.45,4.55,6.84,6.58,1.15,1.08,2.38,2,3.58,3s2.47,1.77,3.69,2.65a20.38,20.38,0,0,0,1.87,1.11l.93.52.47.26.44.17c.59.23,1.16.49,1.75.73l2,.54a25.76,25.76,0,0,0,8.22.69,36.19,36.19,0,0,0,4.21-.54l2.12-.52c.35-.1.7-.16,1.06-.27l1.05-.35a61.85,61.85,0,0,0,8.44-3.48,170.4,170.4,0,0,0,16.52-9.86c11-7.21,22.05-15.06,34.59-21a95.12,95.12,0,0,1,19.85-7.05,70.42,70.42,0,0,1,21.39-1.59,65.41,65.41,0,0,1,21,5.16A62,62,0,0,1,476,497.09c5.11,4.85,9.42,10,13.87,14.49s9.07,8.26,14.39,10.68a43.19,43.19,0,0,0,8.32,2.84,53.08,53.08,0,0,0,9,1.18c.38,0,.75.07,1.13.08H526c1.51-.05,3-.23,4.53-.33,1.5-.26,3-.42,4.5-.74s3-.61,4.46-1.09a84.48,84.48,0,0,0,17.29-7.27c5.61-3.06,11.08-6.58,16.59-10.2s11.07-7.38,16.92-10.86a99.65,99.65,0,0,1,18.72-9,66.49,66.49,0,0,1,10.32-2.66,55.78,55.78,0,0,1,10.73-.68c.89,0,1.79,0,2.69.12l2.66.32a49.26,49.26,0,0,1,5.27.94c.44.09.88.17,1.31.28l1.29.37,2.57.75c1.68.64,3.39,1.19,5,2a51.79,51.79,0,0,1,9.23,5.4c2.83,2,5.38,4.15,7.91,5.89a29.52,29.52,0,0,0,7.88,4,15.1,15.1,0,0,0,2.12.59,15.58,15.58,0,0,0,2.18.44c.74.11,1.48.24,2.23.33l2.22.13a42.4,42.4,0,0,0,9.06-.87,67.06,67.06,0,0,0,9-2.68,101.66,101.66,0,0,0,17.13-8.74,166.76,166.76,0,0,0,15.92-11.33c5.13-4.06,10.06-8.41,14.86-12.91a262.16,262.16,0,0,0,26.74-29.22,166.5,166.5,0,0,1-11.15,16.56c-4,5.32-8.32,10.44-12.84,15.37s-9.32,9.63-14.31,14.12a166.62,166.62,0,0,1-15.92,12.48q-4.2,2.88-8.7,5.35a91.23,91.23,0,0,1-9.27,4.51,68.34,68.34,0,0,1-10,3.25,48.42,48.42,0,0,1-10.67,1.23l-2.75-.11c-.9-.08-1.8-.22-2.7-.33a20.82,20.82,0,0,1-2.69-.49,23.07,23.07,0,0,1-2.69-.69,36.74,36.74,0,0,1-9.88-4.77c-3-2-5.56-4-8.16-5.82a43.86,43.86,0,0,0-8-4.47c-1.37-.65-2.83-1.07-4.26-1.59l-2.21-.59-1.11-.3c-.37-.09-.75-.14-1.13-.22a41.38,41.38,0,0,0-4.53-.71l-2.28-.24c-.75,0-1.52,0-2.27,0a47.78,47.78,0,0,0-9.08.76,56,56,0,0,0-8.87,2.49,78.52,78.52,0,0,0-8.6,3.78c-2.8,1.49-5.58,3.05-8.32,4.76-5.5,3.38-10.89,7.12-16.4,10.88S567.48,522,561.5,525.4a94.39,94.39,0,0,1-19.2,8.39c-1.68.56-3.44.91-5.18,1.34s-3.53.64-5.29,1c-1.79.16-3.58.39-5.38.47l-2.7.06-1.36,0c-.45,0-.89,0-1.34-.06a64.59,64.59,0,0,1-10.77-1.28,52.15,52.15,0,0,1-10.5-3.48,51.38,51.38,0,0,1-9.48-5.67,76.25,76.25,0,0,1-8-7c-4.92-4.91-9.16-9.93-13.71-14.18a51.19,51.19,0,0,0-14.85-10.08,54.47,54.47,0,0,0-17.48-4.16A62.31,62.31,0,0,0,418.1,492a84.3,84.3,0,0,0-17.57,6.18c-11.47,5.39-22.19,12.84-33.38,20.17a179.4,179.4,0,0,1-17.68,10.42,72.54,72.54,0,0,1-10,4.05l-1.31.42c-.44.13-.9.22-1.35.34l-2.71.65a44.22,44.22,0,0,1-5.65.66,27.68,27.68,0,0,1-2.88.06l-2.9-.18a27.65,27.65,0,0,1-2.87-.46l-1.43-.27c-.48-.09-.93-.26-1.4-.39l-2.76-.85c-.94-.38-1.88-.84-2.8-1.28l-.69-.33-.61-.38-1.2-.75a24.8,24.8,0,0,1-2.33-1.55,81,81,0,0,1-15-14.72l-3.14-4.09c-1-1.38-1.94-2.83-2.91-4.24l-1.43-2.12-1.32-2.19c-.88-1.47-1.77-2.92-2.62-4.39l-2.38-4.5c-.39-.76-.81-1.5-1.18-2.26l-1.07-2.31-2.12-4.6-1.88-4.71a170.25,170.25,0,0,1-6.24-19.18c-.84-3.24-1.51-6.53-2.28-9.79-.31-1.64-.55-3.3-.83-4.95l-.4-2.47a10.28,10.28,0,0,0-.24-1.23c-.19-.4-.69-.74-1.94-1Z" transform="translate(-64.61 -56.67)" fill="#1d1d1b"/><text transform="translate(254.99 595.73)" font-size="112" fill="#1d1d1b" stroke="#1d1d1b" stroke-miterlimit="10" font-family="BeautifulFriends, Beautiful Friends"><tspan letter-spacing="-0.18em">P</tspan><tspan x="37.63" y="0" xml:space="preserve">astelería  Flores</tspan></text><path d="M175.72,199.48c63.39-52.79,204.61-170.4,347.76-133.92C638.72,94.93,661.31,200.22,774,199.48c70.08-.46,86-41.31,125.28-28.08,95.35,32.14,123.29,314.44,25.92,533.52-21.42,48.2-90.44,203.49-198.72,211.68-67.26,5.09-83.41-51.61-175-84.24-179.57-64-321.1,81.5-382.32,21.6-68.6-67.13,91.86-266.73-2.16-391-38.16-50.42-90.69-52-99.36-101.52C56.7,298.59,130.3,237.31,175.72,199.48Z" transform="translate(-64.61 -56.67)" fill="none" stroke="#1d1d1b" stroke-miterlimit="10" stroke-width="4"/></g></svg>